<?xml version="1.0" encoding="utf-8"?>
<!-- Generator: Adobe Illustrator 21.1.0, SVG Export Plug-In . SVG Version: 6.00 Build 0)  -->
<svg version="1.1" id="Layer_1" xmlns="http://www.w3.org/2000/svg" xmlns:xlink="http://www.w3.org/1999/xlink" x="0px" y="0px"
	 viewBox="0 0 566.9 566.9" style="enable-background:new 0 0 566.9 566.9;" xml:space="preserve">
<style type="text/css">
	.st0{fill:#1E3867;}
	.st1{fill:#F39200;}
	.st2{fill:#4EC1E2;}
	.st3{fill:#725198;}
	.st4{fill:#D8422D;}
	.st5{fill:#04A87D;}
	.st6{fill:#F6DD00;}
</style>
<g>
	<g>
		<polygon class="st0" points="62.3,248.7 96.9,283.3 131.6,248.7 		"/>
		<polygon class="st1" points="62.3,317.9 96.9,283.3 62.3,248.7 		"/>
		<polygon class="st2" points="131.6,317.9 131.6,283.3 96.9,317.9 		"/>
		<polygon class="st3" points="114.2,300.6 96.9,317.9 62.3,317.9 79.6,300.6 		"/>
		<polygon class="st4" points="96.9,283.3 79.6,300.6 114.2,300.6 		"/>
		<polygon class="st5" points="114.2,266 131.6,283.3 131.6,248.7 		"/>
		
			<rect x="102" y="271.1" transform="matrix(0.7071 0.7071 -0.7071 0.7071 233.7796 2.1873)" class="st6" width="24.5" height="24.5"/>
	</g>
	<path d="M206.2,258.2c-8.5-8.4-16.6-9.5-24-9.5h-22.9v69.2h21.4c14.3,0,23-7.3,26.1-10.5c6-6.1,8.8-13.8,8.8-24
		C215.6,272.9,212.5,264.4,206.2,258.2z M193.4,299c-5.1,5.1-8.7,5.5-13.1,5.5h-5.1v-42.5h5.8c5,0,7.8,0.7,12.3,4.8
		c3.7,3.6,5.9,9.6,5.9,16.5C199.1,291.7,196,296.5,193.4,299z"/>
	<path d="M245,307.3c-3.4,0-6.6-1.9-8.2-3.5c-2.2-2.2-3.6-5.4-3.6-8.5c0-2.4,1-5.9,3.7-8.5c3.1-3.1,6.7-3.4,8-3.4
		c3.1,0,5.9,1.1,8.2,3.4c2.9,2.9,3.6,6.2,3.6,8.5c0,3.3-1.1,6-3.4,8.4C251,306,248,307.3,245,307.3 M242.6,271.2
		c-6.1,0-12.1,2.4-16,6.4c-2.6,2.6-6.9,8.5-6.9,18.2c0,6.7,2,11.8,6.4,16.6c4.4,4.8,9.8,7.2,15.9,7.2c3.4,0,9.7-0.8,13.6-6.3l2-2.8
		v7.5h13v-45.2h-13v6.3l-1.9-2.1C253.8,274.8,249.5,271.2,242.6,271.2"/>
	<path d="M336.6,307.3c-3.4,0-6.6-1.9-8.2-3.5c-2.2-2.2-3.6-5.4-3.6-8.5c0-2.4,1-5.9,3.7-8.5c3.1-3.1,6.7-3.4,8-3.4
		c3.1,0,5.9,1.1,8.2,3.4c2.9,2.9,3.6,6.2,3.6,8.5c0,3.3-1.1,6-3.4,8.4C342.6,306,339.6,307.3,336.6,307.3 M334.2,271.2
		c-6.1,0-12.1,2.4-16,6.4c-2.6,2.6-6.9,8.5-6.9,18.2c0,6.7,2,11.8,6.4,16.6c4.4,4.8,9.8,7.2,15.9,7.2c3.4,0,9.7-0.8,13.6-6.3l2-2.8
		v7.5h13v-45.2h-13v6.3l-1.9-2.1C345.4,274.8,341.2,271.2,334.2,271.2"/>
	<polygon points="284.6,248.7 284.6,272.7 279.3,272.7 279.3,284.4 284.6,284.4 284.6,317.9 299,317.9 299,284.4 308.5,284.4 
		308.5,272.7 299,272.7 299,248.7 	"/>
	<polygon points="480.3,248.7 480.3,318 494.8,318 494.8,284.5 504.3,284.5 504.3,272.8 494.8,272.8 494.8,248.7 	"/>
	<path d="M413.5,294.4h-19.8l9.8-29.5L413.5,294.4z M421.7,317.9h16.5l-25.5-69.2h-18l-26,69.2h16.3l4.8-12.1h27.7L421.7,317.9z"/>
	<path d="M443.4,318h14.5v-19.2c0-1.9,0-7.8,4.1-11.6c2.1-1.9,4.8-2.8,8.3-2.8c2.4,0,5.1,0.1,6.1,0.1v-11.6c-0.7,0-1.1-0.1-1.5-0.1
		l-0.2,0c-0.2,0-0.4,0-0.5,0h-0.6c-2.8,0-5.4,0-7.5,1.1c-2.6,1.3-4.7,3.4-6.1,6.1l-2,3.9v-11h-14.5V318z"/>
</g>
</svg>
