<?xml version="1.0" encoding="utf-8"?>
<!-- Generator: Adobe Illustrator 21.1.0, SVG Export Plug-In . SVG Version: 6.00 Build 0)  -->
<svg version="1.1" id="Layer_1" xmlns="http://www.w3.org/2000/svg" xmlns:xlink="http://www.w3.org/1999/xlink" x="0px" y="0px"
	 viewBox="0 0 500 80" style="enable-background:new 0 0 500 80;" xml:space="preserve">
<style type="text/css">
	.st0{fill:#1E3867;}
	.st1{fill:#F39200;}
	.st2{fill:#4EC1E2;}
	.st3{fill:#725198;}
	.st4{fill:#D8422D;}
	.st5{fill:#04A87D;}
	.st6{fill:#F6DD00;}
	.st7{fill:none;}
</style>
<g>
	<g>
		<polygon class="st0" points="24,4.2 58.6,38.8 93.3,4.2 		"/>
		<polygon class="st1" points="24,73.4 58.6,38.8 24,4.2 		"/>
		<polygon class="st2" points="93.3,73.4 93.3,38.8 58.6,73.4 		"/>
		<polygon class="st3" points="75.9,56.1 58.6,73.4 24,73.4 41.3,56.1 		"/>
		<polygon class="st4" points="58.6,38.8 41.3,56.1 75.9,56.1 		"/>
		<polygon class="st5" points="75.9,21.5 93.3,38.8 93.3,4.2 		"/>
		
			<rect x="63.7" y="26.6" transform="matrix(0.7071 -0.7071 0.7071 0.7071 -5.2239 65.0489)" class="st6" width="24.5" height="24.5"/>
	</g>
	<path d="M167.9,13.7c-8.5-8.4-16.6-9.5-24-9.5H121v69.2h21.4c14.3,0,23-7.3,26.1-10.5c6-6.1,8.8-13.8,8.8-24
		C177.3,28.4,174.2,19.9,167.9,13.7z M155.1,54.5C150,59.6,146.4,60,142,60h-5.1V17.5h5.8c5,0,7.8,0.7,12.3,4.8
		c3.7,3.6,5.9,9.6,5.9,16.5C160.8,47.2,157.7,52,155.1,54.5z"/>
	<path d="M206.7,62.8c-3.4,0-6.6-1.9-8.2-3.5c-2.2-2.2-3.6-5.4-3.6-8.5c0-2.4,1-5.9,3.7-8.5c3.1-3.1,6.7-3.4,8-3.4
		c3.1,0,5.9,1.1,8.2,3.4c2.9,2.9,3.6,6.2,3.6,8.5c0,3.3-1.1,6-3.4,8.4C212.7,61.5,209.7,62.8,206.7,62.8 M204.3,26.7
		c-6.1,0-12.1,2.4-16,6.4c-2.6,2.6-6.9,8.5-6.9,18.2c0,6.7,2,11.8,6.4,16.6c4.4,4.8,9.8,7.2,15.9,7.2c3.4,0,9.7-0.8,13.6-6.3l2-2.8
		v7.5h13V28.3h-13v6.3l-1.9-2.1C215.5,30.3,211.2,26.7,204.3,26.7"/>
	<path d="M298.3,62.8c-3.4,0-6.6-1.9-8.2-3.5c-2.2-2.2-3.6-5.4-3.6-8.5c0-2.4,1-5.9,3.7-8.5c3.1-3.1,6.7-3.4,8-3.4
		c3.1,0,5.9,1.1,8.2,3.4c2.9,2.9,3.6,6.2,3.6,8.5c0,3.3-1.1,6-3.4,8.4C304.3,61.5,301.3,62.8,298.3,62.8 M295.9,26.7
		c-6.1,0-12.1,2.4-16,6.4c-2.6,2.6-6.9,8.5-6.9,18.2c0,6.7,2,11.8,6.4,16.6c4.4,4.8,9.8,7.2,15.9,7.2c3.4,0,9.7-0.8,13.6-6.3l2-2.8
		v7.5h13V28.3h-13v6.3l-1.9-2.1C307.1,30.3,302.9,26.7,295.9,26.7"/>
	<polygon points="246.3,4.2 246.3,28.2 241,28.2 241,39.9 246.3,39.9 246.3,73.4 260.7,73.4 260.7,39.9 270.2,39.9 270.2,28.2 
		260.7,28.2 260.7,4.2 	"/>
	<polygon points="442,4.2 442,73.5 456.5,73.5 456.5,40 466,40 466,28.3 456.5,28.3 456.5,4.2 	"/>
	<path d="M375.2,49.9h-19.8l9.8-29.5L375.2,49.9z M383.4,73.4h16.5L374.4,4.2h-18l-26,69.2h16.3l4.8-12.1h27.7L383.4,73.4z"/>
	<path d="M405.1,73.5h14.5V54.3c0-1.9,0-7.8,4.1-11.6c2.1-1.9,4.8-2.8,8.3-2.8c2.4,0,5.1,0.1,6.1,0.1V28.4c-0.7,0-1.1-0.1-1.5-0.1
		h-0.2c-0.2,0-0.4,0-0.5,0h-0.6c-2.8,0-5.4,0-7.5,1.1c-2.6,1.3-4.7,3.4-6.1,6.1l-2,3.9v-11h-14.5L405.1,73.5L405.1,73.5z"/>
</g>
<rect id="_x3C_Фрагмент_x3E_" x="13" y="-16.5" class="st7" width="464" height="102"/>
</svg>
